<svg width="20" height="19" viewBox="0 0 20 19" fill="none" xmlns="http://www.w3.org/2000/svg">
<path d="M18.3376 11.0736L19.979 3.85133C20.0975 3.32987 19.7011 2.83331 19.1664 2.83331H5.52812L5.20985 1.2774C5.13055 0.889591 4.7893 0.611084 4.39343 0.611084H0.833395C0.373151 0.611084 6.10352e-05 0.984174 6.10352e-05 1.44442V1.99997C6.10352e-05 2.46022 0.373151 2.83331 0.833395 2.83331H3.25989L5.69906 14.7581C5.11551 15.0937 4.72228 15.723 4.72228 16.4444C4.72228 17.5183 5.59284 18.3889 6.66673 18.3889C7.74062 18.3889 8.61117 17.5183 8.61117 16.4444C8.61117 15.9002 8.38732 15.4085 8.02701 15.0555H15.3064C14.9461 15.4085 14.7223 15.9002 14.7223 16.4444C14.7223 17.5183 15.5928 18.3889 16.6667 18.3889C17.7406 18.3889 18.6112 17.5183 18.6112 16.4444C18.6112 15.6746 18.1637 15.0093 17.5147 14.6942L17.7062 13.8513C17.8248 13.3299 17.4284 12.8333 16.8936 12.8333H7.57357L7.34631 11.7222H17.525C17.9141 11.7222 18.2514 11.453 18.3376 11.0736Z" fill="#919191"/>
</svg>
