<svg width="18" height="21" viewBox="0 0 18 21" fill="none" xmlns="http://www.w3.org/2000/svg">
<path d="M9.25003 20.5C10.6297 20.5 11.7489 19.3809 11.7489 18H6.7512C6.7512 19.3809 7.87034 20.5 9.25003 20.5ZM17.6637 14.652C16.909 13.841 15.4969 12.6211 15.4969 8.625C15.4969 5.58984 13.3688 3.16016 10.4992 2.56406V1.75C10.4992 1.05977 9.93987 0.5 9.25003 0.5C8.56018 0.5 8.00081 1.05977 8.00081 1.75V2.56406C5.13128 3.16016 3.00315 5.58984 3.00315 8.625C3.00315 12.6211 1.59104 13.841 0.836355 14.652C0.60198 14.9039 0.498074 15.2051 0.500027 15.5C0.504324 16.1406 1.00706 16.75 1.75393 16.75H16.7461C17.493 16.75 17.9961 16.1406 18 15.5C18.002 15.2051 17.8981 14.9035 17.6637 14.652Z" fill="#919191"/>
</svg>
